<?xml version="1.0" encoding="UTF-8" standalone="no"?>
<!-- Created with Inkscape (http://www.inkscape.org/) -->

<svg
   xmlns:dc="http://purl.org/dc/elements/1.1/"
   xmlns:cc="http://creativecommons.org/ns#"
   xmlns:rdf="http://www.w3.org/1999/02/22-rdf-syntax-ns#"
   xmlns:svg="http://www.w3.org/2000/svg"
   xmlns="http://www.w3.org/2000/svg"
   xmlns:sodipodi="http://sodipodi.sourceforge.net/DTD/sodipodi-0.dtd"
   xmlns:inkscape="http://www.inkscape.org/namespaces/inkscape"
   width="990"
   height="765"
   id="svg2"
   version="1.1"
   inkscape:version="0.48.5 r10040"
   sodipodi:docname="bowline.svg">
  <defs
     id="defs4" />
  <sodipodi:namedview
     id="base"
     pagecolor="#ffffff"
     bordercolor="#666666"
     borderopacity="1.0"
     inkscape:pageopacity="0.0"
     inkscape:pageshadow="2"
     inkscape:zoom="0.70710678"
     inkscape:cx="156.51395"
     inkscape:cy="425.25227"
     inkscape:document-units="px"
     inkscape:current-layer="layer1"
     showgrid="false"
     inkscape:window-width="1920"
     inkscape:window-height="1014"
     inkscape:window-x="0"
     inkscape:window-y="27"
     inkscape:window-maximized="1"
     width="990px" />
  <metadata
     id="metadata7">
    <rdf:RDF>
      <cc:Work
         rdf:about="">
        <dc:format>image/svg+xml</dc:format>
        <dc:type
           rdf:resource="http://purl.org/dc/dcmitype/StillImage" />
        <dc:title></dc:title>
      </cc:Work>
    </rdf:RDF>
  </metadata>
  <g
     inkscape:label="Layer 1"
     inkscape:groupmode="layer"
     id="layer1"
     transform="translate(0,-287.36218)">
    <path
       style="fill:#0000ff;stroke:#000000;stroke-width:5.9000001;stroke-linecap:butt;stroke-linejoin:miter;stroke-miterlimit:4;stroke-opacity:1;stroke-dasharray:none"
       d="m 570.36317,625.48844 c 30.73127,-1.43481 60.12846,6.27333 102.35371,16.08668 -0.4418,12.1328 1.42558,25.04564 -3.71231,36.23923 -43.64692,-18.51937 -72.51909,-20.4731 -100.93949,-21.92031 0.76603,-10.1352 1.53206,-20.2704 2.29809,-30.4056 z"
       id="path3033-2-4"
       inkscape:connector-curvature="0"
       sodipodi:nodetypes="ccccc" />
    <path
       style="fill:#0000ff;stroke:#000000;stroke-width:5.9000001;stroke-linecap:butt;stroke-linejoin:miter;stroke-miterlimit:4;stroke-opacity:1;stroke-dasharray:none"
       d="m 469.82487,615.76843 c -5.96726,16.17092 -7.26402,36.34512 -6.25,58.5 11.33333,-6.25 22.66667,-12.5 34,-18.75 1.13431,-11.95523 2.38002,-23.87333 4.5,-35.5 -10.75,-1.41667 -21.5,-2.83333 -32.25,-4.25 z"
       id="path3031-3-6"
       inkscape:connector-curvature="0"
       sodipodi:nodetypes="ccccc" />
    <path
       style="fill:#0000ff;stroke:#000000;stroke-width:5.9000001;stroke-linecap:butt;stroke-linejoin:miter;stroke-miterlimit:4;stroke-opacity:1;stroke-dasharray:none"
       d="m 442.90717,700.88371 c 3.00521,2.5338 6.01041,5.0676 9.01561,7.6014 12.67137,5.70747 26.17473,8.50299 39.77476,10.96015 -7.01214,-12.84578 -14.02428,-25.69155 -21.03643,-38.53732 -9.25131,6.65859 -18.50262,13.31718 -27.75394,19.97577 z"
       id="path3029-0-0"
       inkscape:connector-curvature="0"
       sodipodi:nodetypes="ccccc" />
    <path
       style="fill:#0000ff;stroke:#000000;stroke-width:5.9000001;stroke-linecap:butt;stroke-linejoin:miter;stroke-miterlimit:4;stroke-opacity:1;stroke-dasharray:none"
       d="m 231.78916,617.05415 c 121.45892,-0.92067 176.05731,25.2972 217.14285,52.85714 -7.80586,6.22161 -32.5606,20.40297 -39.38352,15.83312 -40.92463,-23.34721 -81.60602,-34.63108 -179.1879,-33.69026 0.47619,-11.66667 0.95238,-23.33333 1.42857,-35 z"
       id="path2996-8-6"
       inkscape:connector-curvature="0"
       sodipodi:nodetypes="ccccc" />
    <path
       style="fill:#0000ff;stroke:#000000;stroke-width:5.9000001;stroke-linecap:butt;stroke-linejoin:miter;stroke-miterlimit:4;stroke-opacity:1;stroke-dasharray:none"
       d="m 367.58638,666.51318 c -4.02752,27.78035 19.39613,82.02674 83.84563,43.04097 29.79065,-18.54674 58.35289,-44.8427 90.71429,-50.53572 4.90701,-9.72045 2.60402,-21.43712 3.125,-32.41072 -55.44241,0.85439 -115.06196,67.20374 -135.11095,59.58421 -11.66667,-7.38095 -29.39207,-15.32825 -42.57397,-19.67874 z"
       id="path3002-8-4"
       inkscape:connector-curvature="0"
       sodipodi:nodetypes="cccccc" />
    <path
       style="fill:#0000ff;stroke:#000000;stroke-width:5.9000001;stroke-linecap:butt;stroke-linejoin:miter;stroke-miterlimit:4;stroke-opacity:1;stroke-dasharray:none"
       d="m 700.00344,775.62557 c -122.22963,-8.23036 -168.10743,-58.23464 -200.71428,-98.21428 -9.04762,6.42857 -18.09524,12.85714 -27.14286,19.28571 19.22422,37.00853 119.56737,107.65267 228.21429,110.05026 120.86489,2.66721 135.56654,-89.04786 136.42857,-113.97883 4.06891,-117.67739 -66.34556,-139.94986 -141.06426,-128.54989 -29.45648,4.49423 -97.15003,16.40703 -126.0786,23.54989 7.27053,7.63521 9.13463,22.54485 9.11983,34.81618 56.78263,-19.24299 148.15213,-42.91696 188.02303,-20.17332 41.02921,23.40437 41.56299,61.29094 35.71428,93.57143 -13.49481,74.48122 -59.65412,77.84706 -102.5,79.64285"
       id="path3004-3-6"
       inkscape:connector-curvature="0"
       sodipodi:nodetypes="cccsssccssc" />
    <path
       style="fill:#0000ff;stroke:#000000;stroke-width:5.9000001;stroke-linecap:butt;stroke-linejoin:miter;stroke-miterlimit:4;stroke-opacity:1;stroke-dasharray:none"
       d="m 504.34073,683.59388 c 38.10656,-0.7845 44.49765,-29.23465 39.78373,-66.818 -3.19882,-21.26326 -6.39763,-22.45141 -9.59645,-23.73859 -16.66752,-0.92597 -33.33503,-1.85195 -50.00255,-2.77792 29.35861,-32.74773 57.49029,-39.68678 77.78175,-16.92005 26.4571,29.68449 19.46478,68.54932 5.55584,104.04571 -9.80986,25.03529 -28.37138,37.23945 -43.41118,36.21756 -7.23943,-9.76481 -12.87171,-20.2439 -20.11114,-30.00871 z"
       id="path3006-8-9"
       inkscape:connector-curvature="0"
       sodipodi:nodetypes="ccccsscc" />
    <path
       style="fill:#0000ff;stroke:#000000;stroke-width:5.9000001;stroke-linecap:butt;stroke-linejoin:miter;stroke-miterlimit:4;stroke-opacity:1;stroke-dasharray:none"
       d="m 408.51148,646.32284 c -11.11168,-4.04061 -22.22335,-8.08122 -33.33503,-12.12183 24.13892,-57.66682 92.26784,-44.03832 158.84649,-40.91118 5.87065,-0.58645 9.62611,11.69004 11.1691,33.40769 -3.33414,-1.06876 -10.33363,0.3514 -18.99779,1.94765 -53.22634,-2.3564 -106.22543,-11.49289 -117.68277,17.67767 z"
       id="path3027-9-0"
       inkscape:connector-curvature="0"
       sodipodi:nodetypes="cccccc" />
    <path
       style="fill:none;stroke:#000000;stroke-width:5.9000001;stroke-linecap:butt;stroke-linejoin:miter;stroke-miterlimit:4;stroke-opacity:1;stroke-dasharray:none"
       d="m 266.08073,671.25749 c -3.29357,-117.77706 94.11089,-92.32738 67.5,2 -28.97423,102.70468 -166,-55.66667 -265.999994,-48.5"
       id="path4108"
       inkscape:connector-curvature="0"
       sodipodi:nodetypes="csc" />
    <path
       style="fill:none;stroke:#000000;stroke-width:5.9000001;stroke-linecap:butt;stroke-linejoin:miter;stroke-miterlimit:4;stroke-opacity:1;stroke-dasharray:none"
       d="m 636.71485,680.35517 c 36.41262,-56.32701 24.58699,-148.52785 -8.72791,-141.56781 -33.29405,6.95568 -38.45271,143.47549 -17.99138,164.8772 33.05535,34.57454 97.10586,-30.14476 155.08861,-20.12742"
       id="path4112"
       inkscape:connector-curvature="0"
       sodipodi:nodetypes="cssc" />
  </g>
</svg>
